# xmcd
#
# Track frame offsets:
#	150
#	16952
#	34503
#	40803
#	42777
#	72629
#	77054
#	103756
#	139449
#	164657
#	190611
#	216235
#	236941
#	258026
#	277878
#	287028
#	288303
#
# Disc length: 4624 seconds
#
# Revision: 1
# Processed by: cddbd v1.5.2PL0 Copyright (c) Steve Scherf et al.
# Submitted via: audiograbber 1.83.01
#
DISCID=fb120e11
DTITLE=Led Zeppelin - Minnesota Blues Vol.2 Disk1
DYEAR=2005
DGENRE=Rock
TTITLE0=Starway to heaven
TTITLE1=Untitled instrumental
TTITLE2=Untitled instrumental
TTITLE3=Untitled instrumental
TTITLE4=Starway to heaven
TTITLE5=Untitled instrumental
TTITLE6=Starway to heaven
TTITLE7=Starway to heaven
TTITLE8=The Battle of Evermore
TTITLE9=The Battle of Evermore
TTITLE10=The Battle of Evermore
TTITLE11=Four Sticks (Instrumental Take)
TTITLE12=Four Sticks (Instrumental Take)
TTITLE13=Friends (Instrumental Take)
TTITLE14=Friends (Instrumental Take)
TTITLE15=Friends (Take 1)
TTITLE16=Friends (Take 1)
EXTD=
EXTT0=
EXTT1=
EXTT2=
EXTT3=
EXTT4=
EXTT5=
EXTT6=
EXTT7=
EXTT8=
EXTT9=
EXTT10=
EXTT11=
EXTT12=
EXTT13=
EXTT14=
EXTT15=
EXTT16=
PLAYORDER=
